<svg width="32" height="49" viewBox="0 0 32 49" fill="none" xmlns="http://www.w3.org/2000/svg">
<path d="M25.8403 30.1722C29.1704 24.7545 32 20.1513 32 16C32 7.16345 24.8367 0 16 0C7.16333 0 0 7.16345 0 16C0 20.2839 2.85303 25.049 6.23267 30.6938C9.16968 35.5991 12.5042 41.1687 14.71 47.6641C15.0566 48.6848 16.8237 48.6542 17.1445 47.6251C19.2371 40.9152 22.7537 35.1938 25.8403 30.1722Z" fill="#214087"/>
<path d="M23.0001 23.1676H22.625C22.5919 23.1676 22.5601 23.1539 22.5367 23.1295C22.5132 23.1051 22.5 23.0721 22.5 23.0376V17.5008C22.5003 17.4802 22.4959 17.4597 22.487 17.4412C22.4782 17.4227 22.4652 17.4067 22.4492 17.3944C22.4332 17.3821 22.4146 17.374 22.3949 17.3707C22.3753 17.3674 22.3552 17.3691 22.3363 17.3755C22.0495 17.4691 21.7517 17.5214 21.4513 17.5307C21.4144 17.5307 21.3794 17.5323 21.345 17.5323C20.7671 17.5338 20.1985 17.3812 19.6935 17.0894C19.6552 17.0673 19.6122 17.0557 19.5684 17.0557C19.5247 17.0557 19.4817 17.0673 19.4434 17.0894C18.9385 17.3812 18.37 17.5338 17.7922 17.5323C17.2176 17.5332 16.6527 17.3789 16.1528 17.0845C16.1142 17.0618 16.0707 17.0499 16.0264 17.0499C15.9821 17.0499 15.9385 17.0618 15.9 17.0845C15.3926 17.38 14.8203 17.5343 14.2387 17.5327C13.6603 17.5331 13.0918 17.3763 12.5896 17.078C12.5508 17.055 12.5068 17.0429 12.4621 17.0429C12.4174 17.0429 12.3735 17.055 12.3346 17.078C11.8324 17.3763 11.264 17.5331 10.6855 17.5327C10.6515 17.5327 10.6171 17.5327 10.5802 17.531H10.5783C10.2673 17.5213 9.95924 17.4657 9.66333 17.3657C9.64459 17.3594 9.62469 17.3578 9.60524 17.3611C9.58579 17.3643 9.56735 17.3722 9.55142 17.3843C9.53549 17.3963 9.52251 17.4121 9.51356 17.4303C9.50461 17.4485 9.49992 17.4687 9.49989 17.4891V23.0376C9.49989 23.0721 9.48672 23.1051 9.46328 23.1295C9.43984 23.1539 9.40804 23.1676 9.37489 23.1676H9.01551C8.74551 23.1676 8.51238 23.3832 8.50051 23.6638C8.49747 23.7339 8.50813 23.8039 8.53185 23.8697C8.55558 23.9354 8.59187 23.9954 8.63854 24.0462C8.68521 24.0969 8.74129 24.1373 8.80339 24.1649C8.8655 24.1925 8.93234 24.2068 8.99989 24.2068H22.9844C23.2544 24.2068 23.4876 23.9911 23.4994 23.7105C23.5025 23.6404 23.4918 23.5704 23.4681 23.5047C23.4444 23.4389 23.4081 23.3789 23.3614 23.3282C23.3147 23.2774 23.2586 23.237 23.1965 23.2094C23.1344 23.1818 23.0676 23.1676 23.0001 23.1676ZM15 20.9592C15 20.9936 14.9868 21.0267 14.9633 21.051C14.9399 21.0754 14.9081 21.0891 14.875 21.0891H12.1249C12.0918 21.0891 12.06 21.0754 12.0365 21.051C12.0131 21.0267 11.9999 20.9936 11.9999 20.9592V18.8807C11.9999 18.7774 12.0394 18.6783 12.1098 18.6052C12.1801 18.5321 12.2755 18.491 12.3749 18.491H14.625C14.7244 18.491 14.8198 18.5321 14.8901 18.6052C14.9604 18.6783 15 18.7774 15 18.8807V20.9592ZM19.875 23.1676H17.625C17.5918 23.1676 17.56 23.1539 17.5366 23.1295C17.5132 23.1051 17.5 23.0721 17.5 23.0376V18.8807C17.5 18.7774 17.5395 18.6783 17.6098 18.6052C17.6801 18.5321 17.7755 18.491 17.875 18.491H19.625C19.7245 18.491 19.8199 18.5321 19.8902 18.6052C19.9605 18.6783 20 18.7774 20 18.8807V23.0376C20 23.0721 19.9868 23.1051 19.9634 23.1295C19.94 23.1539 19.9082 23.1676 19.875 23.1676ZM23.3929 14.1484L22.0516 10.9498C21.7003 10.1649 20.8982 9.65759 20.0078 9.65759H11.9905C11.1002 9.65759 10.298 10.1649 9.94677 10.9498L8.60551 14.1484C8.32425 14.7787 8.69582 15.426 8.69613 15.4263L8.70488 15.4409C8.7202 15.4662 8.74738 15.5058 8.76395 15.5312C8.76551 15.5331 8.76676 15.5354 8.76832 15.5377L8.92457 15.7342C8.93042 15.7416 8.93668 15.7486 8.94332 15.7553L9.09958 15.9121L9.1127 15.9238C9.20446 16.0055 9.30262 16.0792 9.40614 16.144V16.1456C9.74624 16.3597 10.1337 16.4791 10.5312 16.4921H10.6083C11.2097 16.4933 11.7891 16.2576 12.2299 15.8326L12.2402 15.8225C12.2863 15.7774 12.3471 15.7523 12.4104 15.7523C12.4737 15.7523 12.5345 15.7774 12.5806 15.8225L12.5909 15.8326C13.0364 16.2569 13.6187 16.4923 14.2231 16.4923C14.8274 16.4923 15.4098 16.2569 15.8553 15.8326C15.9015 15.7881 15.9621 15.7634 16.0251 15.7634C16.0881 15.7634 16.1488 15.7881 16.195 15.8326C16.6392 16.2556 17.2194 16.4908 17.8219 16.4922C18.4244 16.4936 19.0056 16.261 19.4516 15.84C19.4971 15.7962 19.5569 15.7719 19.6189 15.7719C19.681 15.7719 19.7407 15.7962 19.7863 15.84C20.2327 16.2636 20.8165 16.4964 21.421 16.4921H21.4988C21.8862 16.4771 22.2632 16.3573 22.5925 16.1446C22.6222 16.1261 22.6507 16.1067 22.6794 16.0872C22.9015 15.9316 23.0948 15.7356 23.2501 15.5088L23.3044 15.4234C23.3098 15.4147 23.3148 15.4056 23.3194 15.3961C23.3713 15.2863 23.6494 14.7219 23.3929 14.1484Z" fill="white"/>
</svg>
