<svg width="33" height="49" viewBox="0 0 33 49" fill="none" xmlns="http://www.w3.org/2000/svg">
<path d="M25.9722 30.7376C29.3022 25.3199 32.1318 20.7168 32.1318 16.5654C32.1318 7.72888 24.9685 0.56543 16.1318 0.56543C7.29517 0.56543 0.131836 7.72888 0.131836 16.5654C0.131836 20.8493 2.98486 25.6144 6.3645 31.2592C9.30151 36.1646 12.636 41.7341 14.8418 48.2295C15.1885 49.2502 16.9556 49.2196 17.2764 48.1906C19.3689 41.4806 22.8855 35.7592 25.9722 30.7376Z" fill="#214087"/>
<path d="M16.1319 7.56808C11.7443 11.3136 9.54639 14.5487 9.54639 17.2817C9.54639 21.3812 12.6745 24.0319 16.1319 24.0319C19.5893 24.0319 22.7174 21.3812 22.7174 17.2817C22.7174 14.5487 20.5195 11.3136 16.1319 7.56808ZM12.6992 17.4464C13.0038 17.4464 13.2507 17.6604 13.3084 17.9568C13.6459 19.7842 15.1852 20.4099 16.3048 20.3193C16.6588 20.3029 16.9551 20.5827 16.9551 20.9367C16.9551 21.266 16.6917 21.5376 16.3624 21.5541C14.609 21.6611 12.5593 20.6568 12.09 18.1626C12.0242 17.7921 12.3205 17.4464 12.6992 17.4464Z" fill="white"/>
</svg>
